<svg width="31" height="40" fill="none" xmlns="http://www.w3.org/2000/svg"><path d="M7.57 9.901c0-11.728 16.031-12.007 16.031 0" stroke="#CCBEBE" stroke-width="1.5"/><path stroke="#CCBEBE" stroke-width="1.4" d="M.87 10.825H30.3v28.363H.87z"/><g clip-path="url(#clip0)"><path d="M8.472 34.472c-.213.004-.432.019-.646.024.098-.677.39-1.306.838-1.8a3.168 3.168 0 011.407-.897 7.302 7.302 0 01-.906-.05c-.815-.1-1.42-.18-1.81-.647-.37-.446-.48-1.157-.281-1.298.308-.22 1.408.949 1.456.896.022-.02-.219-.281-.5-.586a4.335 4.335 0 01-.867-1.37c-.287-.74-.356-1.554-.231-1.595.125-.04.305.649.987 1.489.578.71 1.116 1.03 1.116 1.03s-.584-.337-.807-.992c-.079-.23-.087-.428-.098-.791-.023-.588-.037-.969.093-1.027.338-.15 1.51 1.914 1.62 2.12.724 1.293.743 1.707 1.367 2.297.283.27.637.465 1.351.855 1.532.848 2.413 1.103 2.384 1.273-.034.146-.759.088-1.097.038a4.001 4.001 0 01-1.281-.431c.173.247.449.622.79 1.09.561.758.735.96.675 1.05-.104.167-.895-.089-1.543-.567-.667-.504-1.018-1.03-1.1-.97-.131.093.715 1.425.487 1.641-.128.12-.589-.125-.867-.466-.319-.385-.37-.845-.45-1.527a7.645 7.645 0 01-.042-.95 2.62 2.62 0 00-1.11.554c-.47.413-.798.977-.935 1.607z" fill="#006837"/><path d="M21.805 15.495c-2.175-1.607-5.517.03-7.57 1.046-2.198 1.096-6.805 3.387-7.12 7.797-.286 3.995 3.158 6.84 3.635 7.24 1.87 1.55 4.588 2.413 6.552 1.997 4.04-.853 5.422-7.307 5.724-8.72.32-1.496 1.565-7.298-1.22-9.36z" fill="#D88C84"/><path d="M18.037 33.291c.084-.686.098-1.646-.452-2.336s-1.147-.466-2.067-1.149c-1.043-.773-.699-1.385-1.845-2.644-1.197-1.31-1.797-.902-2.416-2.015-.56-.994-.24-1.601-1.024-2.553-.247-.302-.667-.8-1.327-.86-.594-.055-1.052.256-1.206.372a9.577 9.577 0 013.555-3.88c.014-.01 3.367-2.67 7.704-3.368.425-.068 1.062-.145 1.8.101 1.152.387 1.789 1.305 2.014 1.62.855 1.226.84 2.578.823 4.314-.028 2.162-.445 3.773-.754 4.935-.158.587-.75 2.82-1.969 4.91-.372.634-.842 1.323-1.626 1.903a5.44 5.44 0 01-1.21.65z" fill="#47271B"/><path d="M19.727 32.128a9.25 9.25 0 00-.218-2.264 6.947 6.947 0 00-.835-2.084 8.785 8.785 0 00-.655-.901 16.535 16.535 0 01-1.83-2.84c-.167-.336-.32-.69-.479-1.027a4.242 4.242 0 00-.59-.932 4.343 4.343 0 00-.808-.731 2.135 2.135 0 00-.223-.15l-.236-.14a3.558 3.558 0 00-.242-.122 1.736 1.736 0 00-.24-.113 9.318 9.318 0 00-2.072-.623c-.181-.041-.358-.059-.537-.092l-.268-.044-.267-.034c-.356-.05-.722-.066-1.084-.099l-.002-.016c.365.008.73.015 1.09.04l.271.016.274.032c.178.025.363.041.542.074a8.616 8.616 0 012.113.583c.673.29 1.312.713 1.805 1.304.12.147.23.302.33.463.1.163.188.333.266.509.16.345.297.694.463 1.029a16.328 16.328 0 001.783 2.843c.232.299.462.589.651.92a7 7 0 01.81 2.121 9.34 9.34 0 01.188 2.279v-.001zm-7.612-14.374a4.812 4.812 0 012.156.896c.127.098.249.203.365.316.234.222.44.477.61.757.34.555.536 1.191.918 1.702.192.253.413.482.657.679.243.198.513.357.801.47.292.111.587.16.896.242.302.084.611.21.866.406l.19.156.176.168c.115.115.223.238.324.366.196.258.369.535.516.828.147.294.28.592.403.891.123.3.247.598.364.908.228.609.414 1.235.557 1.872l-.016.003a21.688 21.688 0 00-1.042-2.714 11.444 11.444 0 00-.417-.872 5.42 5.42 0 00-.496-.804 3.928 3.928 0 00-.305-.353l-.167-.161-.173-.15a2.389 2.389 0 00-.809-.409c-.292-.085-.602-.158-.895-.287a3.586 3.586 0 01-.8-.504 5.053 5.053 0 01-.664-.685 6.161 6.161 0 01-.516-.827c-.154-.285-.3-.573-.475-.834a4.405 4.405 0 00-.598-.725 5.45 5.45 0 00-.73-.58 5.758 5.758 0 00-1.7-.728l.004-.027zm10.802 7.486a6.682 6.682 0 01-.94-1.253 5.013 5.013 0 01-.584-1.476c-.118-.518-.15-1.06-.369-1.534a1.658 1.658 0 00-.087-.177l-.1-.164c-.075-.1-.15-.207-.232-.305a2.426 2.426 0 00-.56-.497c-.212-.135-.438-.258-.652-.41a5.699 5.699 0 01-.606-.487c-.088-.089-.186-.184-.276-.28-.09-.097-.18-.185-.27-.29-.173-.194-.332-.409-.496-.604a6.566 6.566 0 00-1.097-1.06 7.947 7.947 0 00-1.286-.804l.005-.019a6.501 6.501 0 012.5 1.774c.167.204.33.4.5.595.171.194.345.379.53.555.185.177.375.34.575.494.205.145.424.27.638.422.216.15.413.33.584.536.083.098.16.214.235.322l.102.173c.034.058.064.12.088.184.104.248.178.509.22.777.041.262.078.525.13.786a4.92 4.92 0 00.547 1.465c.253.46.558.886.91 1.268l-.009.009zm-2.381-8.115c.463.21.913.492 1.253.908.168.21.298.452.381.713.078.26.12.53.125.803.007.264.034.527.081.786.023.128.057.252.103.373.035.124.083.243.141.357.052.118.113.232.18.34.064.114.133.223.209.327.153.21.323.406.508.585l-.006.01a2.802 2.802 0 01-.303-.24 4.996 4.996 0 01-.277-.28 3.425 3.425 0 01-.446-.665 2.75 2.75 0 01-.253-.78 5.25 5.25 0 01-.051-.808 2.803 2.803 0 00-.096-.774 2.065 2.065 0 00-.344-.685c-.306-.413-.735-.717-1.193-.945l-.012-.025zm-1.623-2.247a3.24 3.24 0 00-.085 1.097c.035.365.136.72.298 1.044.162.322.391.6.643.856.263.256.557.475.876.649l-.006.017a2.528 2.528 0 01-.984-.547 2.915 2.915 0 01-.379-.421 4.112 4.112 0 01-.282-.49 3.255 3.255 0 01-.18-.529 4.311 4.311 0 01-.083-.558 3.258 3.258 0 01.152-1.112l.03-.006zm1.157.67c.3-.047.607-.033.903.042a2.189 2.189 0 011.393 1.206c.128.297.196.62.198.946l-.016.003a4.749 4.749 0 00-.325-.87 2.933 2.933 0 00-.51-.742 1.938 1.938 0 00-.759-.461 2.097 2.097 0 00-.882-.107l-.003-.017z" fill="#FFDDD2"/><path d="M7.733 24.39a.851.851 0 00.11.562.828.828 0 00.354-.44c.089-.26.04-.609-.074-.649-.126-.018-.338.247-.39.526zm8.262 8.444a.773.773 0 00-.386.402.754.754 0 00.539.074c.26-.065.502-.293.466-.417-.037-.124-.366-.167-.62-.06zm.081-1.895a.822.822 0 00-.28.487c.183.043.374.02.543-.065.233-.13.424-.418.357-.53-.068-.11-.402-.063-.62.108zm-3.523-2.689a.823.823 0 00-.282.485.8.8 0 00.542-.066c.234-.13.425-.418.357-.53-.067-.11-.407-.06-.617.11zm-1.803.04a.82.82 0 00-.281.485c.182.042.373.02.542-.066.234-.13.425-.418.357-.529-.068-.111-.401-.064-.618.11zm2.608 1.94c-.145.219-.128.468-.12.563a.745.745 0 00.485-.247c.181-.199.273-.538.178-.618-.089-.084-.385.066-.543.303zm-2.332-4.04a.794.794 0 00-.13.555.78.78 0 00.496-.23c.19-.201.283-.53.194-.619-.097-.088-.4.064-.56.294zm-1.73.234c-.136.225-.111.473-.104.567a.84.84 0 00.483-.264c.172-.206.254-.553.16-.63-.098-.086-.39.082-.54.327zm-.024-2.581a.854.854 0 00-.096.566.779.779 0 00.473-.27c.17-.215.247-.55.151-.629-.087-.08-.379.096-.528.333z" fill="#000"/></g><defs><clipPath id="clip0"><path fill="#fff" transform="translate(3.87 11.173)" d="M0 0h19.731v24.16H0z"/></clipPath></defs></svg>