<svg width="35" height="37" fill="none" xmlns="http://www.w3.org/2000/svg"><g clip-path="url(#clip0)"><path d="M24.938 3.802c-2.903-.015-5.664 1.289-7.534 3.56-1.859-2.287-4.627-3.595-7.535-3.56C4.42 3.802 0 8.322 0 13.898c0 9.555 16.302 18.884 16.963 19.245a.778.778 0 00.881 0c.661-.36 16.964-9.555 16.964-19.245 0-5.576-4.419-10.096-9.87-10.096zM17.404 31.34c-2.556-1.532-15.642-9.69-15.642-17.442 0-4.58 3.63-8.293 8.108-8.293 2.741-.037 5.307 1.378 6.785 3.74a.912.912 0 001.498 0c2.45-3.832 7.475-4.908 11.222-2.401 2.294 1.534 3.675 4.15 3.67 6.954 0 7.842-13.086 15.955-15.641 17.442z" fill="#CCBEBE"/></g><defs><clipPath id="clip0"><path fill="#fff" transform="translate(0 .738)" d="M0 0h34.808v35.605H0z"/></clipPath></defs></svg>