<svg width="32" height="32" fill="none" xmlns="http://www.w3.org/2000/svg"><g clip-path="url(#clip0)"><path fill-rule="evenodd" clip-rule="evenodd" d="M23.94 8.147a10.408 10.408 0 00-7.395-3.05c-5.763 0-10.456 4.666-10.456 10.404 0 1.833.482 3.623 1.396 5.202L6 26.096l5.545-1.448a10.539 10.539 0 004.996 1.268h.004C22.307 25.916 27 21.248 27 15.51a10.313 10.313 0 00-3.06-7.364zm-7.395 16.011h-.004a8.691 8.691 0 01-4.422-1.205l-.317-.187-3.29.857.877-3.192-.207-.329a8.55 8.55 0 01-1.327-4.601c0-4.769 3.897-8.648 8.693-8.648 2.32 0 4.505.9 6.145 2.536a8.583 8.583 0 012.545 6.119c-.004 4.768-3.905 8.65-8.693 8.65zm4.765-6.48c-.26-.13-1.544-.758-1.785-.847-.241-.085-.413-.131-.588.131-.175.26-.673.848-.828 1.019-.152.174-.304.193-.568.065-.26-.131-1.102-.404-2.102-1.29-.776-.69-1.3-1.54-1.452-1.8-.152-.26 0-.388.115-.532.284-.348.568-.716.654-.89.086-.174.043-.325-.023-.457-.066-.131-.588-1.409-.806-1.931-.21-.506-.429-.437-.587-.447a11.88 11.88 0 00-.502-.01.96.96 0 00-.696.326c-.241.259-.914.89-.914 2.167 0 1.278.937 2.516 1.066 2.69.132.174 1.841 2.798 4.462 3.925.623.27 1.109.427 1.488.548a3.586 3.586 0 001.647.102c.502-.075 1.545-.63 1.763-1.235.217-.607.217-1.126.151-1.235-.06-.102-.234-.167-.495-.299z" fill="#CCBEBE"/></g><rect x=".5" y=".5" width="31" height="30.65" rx="7.5" stroke="#CCBEBE"/><defs><clipPath id="clip0"><path fill="#fff" transform="translate(6 5.096)" d="M0 0h21v21H0z"/></clipPath></defs></svg>